<svg width="12" height="11" viewBox="0 0 12 11" fill="none" xmlns="http://www.w3.org/2000/svg">
<path d="M0.666656 3C0.666656 2.33696 0.947608 1.70107 1.4477 1.23223C1.9478 0.763392 2.62608 0.5 3.33332 0.5H8.66666C9.3739 0.5 10.0522 0.763392 10.5523 1.23223C11.0524 1.70107 11.3333 2.33696 11.3333 3V8C11.3333 8.66304 11.0524 9.29893 10.5523 9.76777C10.0522 10.2366 9.3739 10.5 8.66666 10.5H3.33332C2.62608 10.5 1.9478 10.2366 1.4477 9.76777C0.947608 9.29893 0.666656 8.66304 0.666656 8V3Z" stroke="#1E2939" stroke-linecap="round" stroke-linejoin="round"/>
<path d="M4 5.5C4 5.99728 4.21071 6.47419 4.58579 6.82583C4.96086 7.17746 5.46957 7.375 6 7.375C6.53043 7.375 7.03914 7.17746 7.41421 6.82583C7.78929 6.47419 8 5.99728 8 5.5C8 5.00272 7.78929 4.52581 7.41421 4.17417C7.03914 3.82254 6.53043 3.625 6 3.625C5.46957 3.625 4.96086 3.82254 4.58579 4.17417C4.21071 4.52581 4 5.00272 4 5.5Z" stroke="#1E2939" stroke-linecap="round" stroke-linejoin="round"/>
<path d="M9 2.6875V2.69375" stroke="#1E2939" stroke-linecap="round" stroke-linejoin="round"/>
</svg>
