<svg width="15" height="10" viewBox="0 0 15 10" fill="none" xmlns="http://www.w3.org/2000/svg">
<path d="M3.11523 0.5H11.8848C13.3575 0.500038 14.4998 1.61763 14.5 2.93457V7.06543C14.4998 8.38237 13.3575 9.49996 11.8848 9.5H3.11523C1.64252 9.49996 0.500242 8.38237 0.5 7.06543V2.93457C0.500241 1.61763 1.64252 0.500037 3.11523 0.5ZM5.81836 2.48242C5.42939 2.3555 4.94051 2.6056 4.94043 3.10254V6.9043C4.94065 7.39395 5.41781 7.6456 5.80469 7.52832L5.88086 7.5L9.98242 5.65723C10.4607 5.44241 10.5012 4.80163 10.0859 4.52246L9.99707 4.47168L5.89551 2.5127L5.81836 2.48242Z" stroke="#1E2939"/>
</svg>
